<svg width="163" height="42" viewBox="0 0 163 42" fill="none" xmlns="http://www.w3.org/2000/svg">
<path d="M21.8482 0.684082V5.43008H14.0362V30.0001H8.15624V5.43008H0.344238V0.684082H21.8482ZM36.4704 30.3781C34.2304 30.3781 32.2144 29.8881 30.4224 28.9081C28.6304 27.9001 27.2164 26.4861 26.1804 24.6661C25.1724 22.8461 24.6684 20.7461 24.6684 18.3661C24.6684 15.9861 25.1864 13.8861 26.2224 12.0661C27.2864 10.2461 28.7284 8.84608 30.5484 7.86608C32.3684 6.85808 34.3984 6.35408 36.6384 6.35408C38.8784 6.35408 40.9084 6.85808 42.7284 7.86608C44.5484 8.84608 45.9764 10.2461 47.0124 12.0661C48.0764 13.8861 48.6084 15.9861 48.6084 18.3661C48.6084 20.7461 48.0624 22.8461 46.9704 24.6661C45.9064 26.4861 44.4504 27.9001 42.6024 28.9081C40.7824 29.8881 38.7384 30.3781 36.4704 30.3781ZM36.4704 25.2541C37.5344 25.2541 38.5284 25.0021 39.4524 24.4981C40.4044 23.9661 41.1604 23.1821 41.7204 22.1461C42.2804 21.1101 42.5604 19.8501 42.5604 18.3661C42.5604 16.1541 41.9724 14.4601 40.7964 13.2841C39.6484 12.0801 38.2344 11.4781 36.5544 11.4781C34.8744 11.4781 33.4604 12.0801 32.3124 13.2841C31.1924 14.4601 30.6324 16.1541 30.6324 18.3661C30.6324 20.5781 31.1784 22.2861 32.2704 23.4901C33.3904 24.6661 34.7904 25.2541 36.4704 25.2541ZM58.8016 10.0921C59.5576 9.02808 60.5936 8.14608 61.9096 7.44608C63.2536 6.71808 64.7796 6.35408 66.4876 6.35408C68.4756 6.35408 70.2676 6.84408 71.8636 7.82408C73.4876 8.80408 74.7616 10.2041 75.6856 12.0241C76.6376 13.8161 77.1136 15.9021 77.1136 18.2821C77.1136 20.6621 76.6376 22.7761 75.6856 24.6241C74.7616 26.4441 73.4876 27.8581 71.8636 28.8661C70.2676 29.8741 68.4756 30.3781 66.4876 30.3781C64.7796 30.3781 63.2676 30.0281 61.9516 29.3281C60.6636 28.6281 59.6136 27.7461 58.8016 26.6821V41.0881H52.9216V6.73208H58.8016V10.0921ZM71.1076 18.2821C71.1076 16.8821 70.8136 15.6781 70.2256 14.6701C69.6656 13.6341 68.9096 12.8501 67.9576 12.3181C67.0336 11.7861 66.0256 11.5201 64.9336 11.5201C63.8696 11.5201 62.8616 11.8001 61.9096 12.3601C60.9856 12.8921 60.2296 13.6761 59.6416 14.7121C59.0816 15.7481 58.8016 16.9661 58.8016 18.3661C58.8016 19.7661 59.0816 20.9841 59.6416 22.0201C60.2296 23.0561 60.9856 23.8541 61.9096 24.4141C62.8616 24.9461 63.8696 25.2121 64.9336 25.2121C66.0256 25.2121 67.0336 24.9321 67.9576 24.3721C68.9096 23.8121 69.6656 23.0141 70.2256 21.9781C70.8136 20.9421 71.1076 19.7101 71.1076 18.2821Z" fill="#E03A3C"/>
<path d="M105.704 0.684082V30.0001H99.8239V17.5261H87.2662V30.0001H81.3862V0.684082H87.2662V12.7381H99.8239V0.684082H105.704ZM109.98 18.2821C109.98 15.9301 110.442 13.8441 111.366 12.0241C112.318 10.2041 113.592 8.80408 115.188 7.82408C116.812 6.84408 118.618 6.35408 120.606 6.35408C122.342 6.35408 123.854 6.70408 125.142 7.40408C126.458 8.10408 127.508 8.98608 128.292 10.0501V6.73208H134.214V30.0001H128.292V26.5981C127.536 27.6901 126.486 28.6001 125.142 29.3281C123.826 30.0281 122.3 30.3781 120.564 30.3781C118.604 30.3781 116.812 29.8741 115.188 28.8661C113.592 27.8581 112.318 26.4441 111.366 24.6241C110.442 22.7761 109.98 20.6621 109.98 18.2821ZM128.292 18.3661C128.292 16.9381 128.012 15.7201 127.452 14.7121C126.892 13.6761 126.136 12.8921 125.184 12.3601C124.232 11.8001 123.21 11.5201 122.118 11.5201C121.026 11.5201 120.018 11.7861 119.094 12.3181C118.17 12.8501 117.414 13.6341 116.826 14.6701C116.266 15.6781 115.986 16.8821 115.986 18.2821C115.986 19.6821 116.266 20.9141 116.826 21.9781C117.414 23.0141 118.17 23.8121 119.094 24.3721C120.046 24.9321 121.054 25.2121 122.118 25.2121C123.21 25.2121 124.232 24.9461 125.184 24.4141C126.136 23.8541 126.892 23.0701 127.452 22.0621C128.012 21.0261 128.292 19.7941 128.292 18.3661ZM146.803 11.5621V22.8181C146.803 23.6021 146.985 24.1761 147.349 24.5401C147.741 24.8761 148.385 25.0441 149.281 25.0441H152.011V30.0001H148.315C143.359 30.0001 140.881 27.5921 140.881 22.7761V11.5621H138.109V6.73208H140.881V0.978083H146.803V6.73208H152.011V11.5621H146.803ZM158.844 30.2941C157.78 30.2941 156.898 29.9721 156.198 29.3281C155.526 28.6561 155.19 27.8301 155.19 26.8501C155.19 25.8701 155.526 25.0581 156.198 24.4141C156.898 23.7421 157.78 23.4061 158.844 23.4061C159.88 23.4061 160.734 23.7421 161.406 24.4141C162.078 25.0581 162.414 25.8701 162.414 26.8501C162.414 27.8301 162.078 28.6561 161.406 29.3281C160.734 29.9721 159.88 30.2941 158.844 30.2941Z" fill="#2D2D2D"/>
<path d="M83.9838 37.045C83.6723 37.045 83.3907 36.9917 83.139 36.885C82.8915 36.7783 82.6953 36.6247 82.5502 36.4242C82.4051 36.2237 82.3305 35.9869 82.3262 35.7138H83.2862C83.299 35.8973 83.363 36.0423 83.4782 36.149C83.5977 36.2557 83.7598 36.309 83.9646 36.309C84.1737 36.309 84.3379 36.2599 84.4574 36.1618C84.5769 36.0594 84.6366 35.9271 84.6366 35.765C84.6366 35.6327 84.5961 35.5239 84.515 35.4386C84.4339 35.3533 84.3315 35.2871 84.2078 35.2402C84.0883 35.189 83.9219 35.1335 83.7086 35.0738C83.4185 34.9885 83.1817 34.9053 82.9982 34.8242C82.819 34.7389 82.6633 34.613 82.531 34.4466C82.403 34.2759 82.339 34.0498 82.339 33.7682C82.339 33.5037 82.4051 33.2733 82.5374 33.077C82.6697 32.8807 82.8553 32.7314 83.0942 32.629C83.3331 32.5223 83.6062 32.469 83.9134 32.469C84.3742 32.469 84.7475 32.5821 85.0334 32.8082C85.3235 33.0301 85.4835 33.3415 85.5134 33.7426H84.5278C84.5193 33.589 84.4531 33.4631 84.3294 33.365C84.2099 33.2626 84.0499 33.2114 83.8494 33.2114C83.6745 33.2114 83.5337 33.2562 83.427 33.3458C83.3246 33.4354 83.2734 33.5655 83.2734 33.7362C83.2734 33.8557 83.3118 33.9559 83.3886 34.037C83.4697 34.1138 83.5678 34.1778 83.683 34.229C83.8025 34.2759 83.9689 34.3314 84.1822 34.3954C84.4723 34.4807 84.7091 34.5661 84.8926 34.6514C85.0761 34.7367 85.2339 34.8647 85.3662 35.0354C85.4985 35.2061 85.5646 35.4301 85.5646 35.7074C85.5646 35.9463 85.5027 36.1682 85.379 36.373C85.2553 36.5778 85.0739 36.7421 84.835 36.8658C84.5961 36.9853 84.3123 37.045 83.9838 37.045ZM89.695 37.045C89.2769 37.045 88.8929 36.9469 88.543 36.7506C88.1931 36.5543 87.9158 36.2834 87.711 35.9378C87.5062 35.5879 87.4038 35.1933 87.4038 34.7538C87.4038 34.3186 87.5062 33.9282 87.711 33.5826C87.9158 33.2327 88.1931 32.9597 88.543 32.7634C88.8929 32.5671 89.2769 32.469 89.695 32.469C90.1174 32.469 90.5014 32.5671 90.847 32.7634C91.1969 32.9597 91.4721 33.2327 91.6726 33.5826C91.8774 33.9282 91.9798 34.3186 91.9798 34.7538C91.9798 35.1933 91.8774 35.5879 91.6726 35.9378C91.4721 36.2834 91.1969 36.5543 90.847 36.7506C90.4971 36.9469 90.1131 37.045 89.695 37.045ZM89.695 36.245C89.9638 36.245 90.2006 36.1853 90.4054 36.0658C90.6102 35.9421 90.7702 35.7671 90.8854 35.541C91.0006 35.3149 91.0582 35.0525 91.0582 34.7538C91.0582 34.4551 91.0006 34.1949 90.8854 33.973C90.7702 33.7469 90.6102 33.5741 90.4054 33.4546C90.2006 33.3351 89.9638 33.2754 89.695 33.2754C89.4262 33.2754 89.1873 33.3351 88.9782 33.4546C88.7734 33.5741 88.6134 33.7469 88.4982 33.973C88.383 34.1949 88.3254 34.4551 88.3254 34.7538C88.3254 35.0525 88.383 35.3149 88.4982 35.541C88.6134 35.7671 88.7734 35.9421 88.9782 36.0658C89.1873 36.1853 89.4262 36.245 89.695 36.245ZM96.9664 32.533V33.2562H95.776V37.0002H94.88V33.2562H93.6896V32.533H96.9664ZM104.872 32.533L103.624 37.0002H102.568L101.729 33.8194L100.852 37.0002L99.8028 37.0066L98.5993 32.533H99.5598L100.347 36.0018L101.256 32.533H102.254L103.112 35.9826L103.905 32.533H104.872ZM109.476 36.149H107.697L107.402 37.0002H106.461L108.068 32.5266H109.111L110.717 37.0002H109.77L109.476 36.149ZM109.233 35.4322L108.586 33.5634L107.94 35.4322H109.233ZM114.902 37.0002L113.916 35.2594H113.494V37.0002H112.598V32.533H114.275C114.62 32.533 114.915 32.5949 115.158 32.7186C115.401 32.8381 115.582 33.0023 115.702 33.2114C115.826 33.4162 115.887 33.6466 115.887 33.9026C115.887 34.197 115.802 34.4637 115.631 34.7026C115.461 34.9373 115.207 35.0994 114.87 35.189L115.939 37.0002H114.902ZM113.494 34.5874H114.243C114.486 34.5874 114.667 34.5298 114.787 34.4146C114.906 34.2951 114.966 34.1309 114.966 33.9218C114.966 33.717 114.906 33.5591 114.787 33.4482C114.667 33.333 114.486 33.2754 114.243 33.2754H113.494V34.5874ZM118.874 33.2562V34.3762H120.378V35.0866H118.874V36.2706H120.57V37.0002H117.978V32.5266H120.57V33.2562H118.874ZM128.727 33.9154C128.727 34.1543 128.669 34.3783 128.554 34.5874C128.443 34.7965 128.266 34.965 128.023 35.093C127.784 35.221 127.481 35.285 127.114 35.285H126.365V37.0002H125.469V32.533H127.114C127.46 32.533 127.754 32.5927 127.997 32.7122C128.24 32.8317 128.422 32.9959 128.541 33.205C128.665 33.4141 128.727 33.6509 128.727 33.9154ZM127.076 34.5618C127.323 34.5618 127.506 34.5063 127.626 34.3954C127.745 34.2802 127.805 34.1202 127.805 33.9154C127.805 33.4802 127.562 33.2626 127.076 33.2626H126.365V34.5618H127.076ZM132.121 36.1746L133.017 33.4546H133.971L132.659 37.0002H131.571L130.265 33.4546H131.225L132.121 36.1746ZM136.797 34.1906V35.9058C136.797 36.0253 136.825 36.1127 136.881 36.1682C136.94 36.2194 137.038 36.245 137.175 36.245H137.591V37.0002H137.028C136.273 37.0002 135.895 36.6333 135.895 35.8994V34.1906H135.473V33.4546H135.895V32.5778H136.797V33.4546H137.591V34.1906H136.797ZM139.912 37.045C139.75 37.045 139.616 36.9959 139.509 36.8978C139.407 36.7954 139.355 36.6695 139.355 36.5202C139.355 36.3709 139.407 36.2471 139.509 36.149C139.616 36.0466 139.75 35.9954 139.912 35.9954C140.07 35.9954 140.2 36.0466 140.303 36.149C140.405 36.2471 140.456 36.3709 140.456 36.5202C140.456 36.6695 140.405 36.7954 140.303 36.8978C140.2 36.9959 140.07 37.045 139.912 37.045ZM146.159 36.2898H147.631V37.0002H145.263V32.533H146.159V36.2898ZM150.524 34.1906V35.9058C150.524 36.0253 150.551 36.1127 150.607 36.1682C150.666 36.2194 150.765 36.245 150.901 36.245H151.317V37.0002H150.754C149.999 37.0002 149.621 36.6333 149.621 35.8994V34.1906H149.199V33.4546H149.621V32.5778H150.524V33.4546H151.317V34.1906H150.524ZM153.011 35.2146C153.011 34.8562 153.082 34.5383 153.222 34.261C153.367 33.9837 153.564 33.7703 153.811 33.621C154.059 33.4717 154.334 33.397 154.637 33.397C154.867 33.397 155.087 33.4482 155.296 33.5506C155.505 33.6487 155.671 33.781 155.795 33.9474V32.2642H156.704V37.0002H155.795V36.4754C155.684 36.6503 155.529 36.7911 155.328 36.8978C155.127 37.0045 154.895 37.0578 154.63 37.0578C154.332 37.0578 154.059 36.981 153.811 36.8274C153.564 36.6738 153.367 36.4583 153.222 36.181C153.082 35.8994 153.011 35.5773 153.011 35.2146ZM155.802 35.2274C155.802 35.0098 155.759 34.8242 155.674 34.6706C155.588 34.5127 155.473 34.3933 155.328 34.3122C155.183 34.2269 155.027 34.1842 154.861 34.1842C154.694 34.1842 154.541 34.2247 154.4 34.3058C154.259 34.3869 154.144 34.5063 154.054 34.6642C153.969 34.8178 153.926 35.0013 153.926 35.2146C153.926 35.4279 153.969 35.6157 154.054 35.7778C154.144 35.9357 154.259 36.0573 154.4 36.1426C154.545 36.2279 154.699 36.2706 154.861 36.2706C155.027 36.2706 155.183 36.2301 155.328 36.149C155.473 36.0637 155.588 35.9442 155.674 35.7906C155.759 35.6327 155.802 35.445 155.802 35.2274ZM159.256 37.045C159.094 37.045 158.959 36.9959 158.853 36.8978C158.75 36.7954 158.699 36.6695 158.699 36.5202C158.699 36.3709 158.75 36.2471 158.853 36.149C158.959 36.0466 159.094 35.9954 159.256 35.9954C159.414 35.9954 159.544 36.0466 159.646 36.149C159.749 36.2471 159.8 36.3709 159.8 36.5202C159.8 36.6695 159.749 36.7954 159.646 36.8978C159.544 36.9959 159.414 37.045 159.256 37.045Z" fill="#2D2D2D"/>
</svg>
